<svg width="16" height="16" viewBox="0 0 16 16" fill="none" xmlns="http://www.w3.org/2000/svg">
<rect width="16" height="16" fill="#F5F5F5"/>
<rect x="-79" y="-600" width="1396" height="1080" fill="white"/>
<g filter="url(#filter0_dd_0_1)">
<rect x="-59" y="-500" width="972" height="888" rx="20" fill="white"/>
<rect opacity="0.15" x="-14.5" y="-15.5" width="615" height="47" rx="7.5" stroke="#262626"/>
<g clip-path="url(#clip0_0_1)">
<path d="M1.5 4.5C1.5 10.0227 5.97733 14.5 11.5 14.5H13C13.3978 14.5 13.7794 14.342 14.0607 14.0607C14.342 13.7794 14.5 13.3978 14.5 13V12.0853C14.5 11.7413 14.266 11.4413 13.932 11.358L10.9833 10.6207C10.69 10.5473 10.382 10.6573 10.2013 10.8987L9.55467 11.7607C9.36667 12.0113 9.042 12.122 8.748 12.014C7.65659 11.6128 6.66544 10.9791 5.84319 10.1568C5.02094 9.33456 4.38725 8.34341 3.986 7.252C3.878 6.958 3.98867 6.63333 4.23933 6.44533L5.10133 5.79867C5.34333 5.618 5.45267 5.30933 5.37933 5.01667L4.642 2.068C4.60143 1.9058 4.50781 1.7618 4.37604 1.65889C4.24426 1.55598 4.08187 1.50006 3.91467 1.5H3C2.60218 1.5 2.22064 1.65804 1.93934 1.93934C1.65804 2.22064 1.5 2.60218 1.5 3V4.5Z" stroke="black" stroke-width="1.5" stroke-linecap="round" stroke-linejoin="round"/>
</g>
</g>
<defs>
<filter id="filter0_dd_0_1" x="-64" y="-501" width="982" height="898" filterUnits="userSpaceOnUse" color-interpolation-filters="sRGB">
<feFlood flood-opacity="0" result="BackgroundImageFix"/>
<feColorMatrix in="SourceAlpha" type="matrix" values="0 0 0 0 0 0 0 0 0 0 0 0 0 0 0 0 0 0 127 0" result="hardAlpha"/>
<feMorphology radius="1" operator="erode" in="SourceAlpha" result="effect1_dropShadow_0_1"/>
<feOffset dy="4"/>
<feGaussianBlur stdDeviation="3"/>
<feColorMatrix type="matrix" values="0 0 0 0 0 0 0 0 0 0 0 0 0 0 0 0 0 0 0.1 0"/>
<feBlend mode="normal" in2="BackgroundImageFix" result="effect1_dropShadow_0_1"/>
<feColorMatrix in="SourceAlpha" type="matrix" values="0 0 0 0 0 0 0 0 0 0 0 0 0 0 0 0 0 0 127 0" result="hardAlpha"/>
<feMorphology radius="2" operator="erode" in="SourceAlpha" result="effect2_dropShadow_0_1"/>
<feOffset dy="2"/>
<feGaussianBlur stdDeviation="2"/>
<feColorMatrix type="matrix" values="0 0 0 0 0 0 0 0 0 0 0 0 0 0 0 0 0 0 0.1 0"/>
<feBlend mode="normal" in2="effect1_dropShadow_0_1" result="effect2_dropShadow_0_1"/>
<feBlend mode="normal" in="SourceGraphic" in2="effect2_dropShadow_0_1" result="shape"/>
</filter>
<clipPath id="clip0_0_1">
<rect width="16" height="16" fill="white"/>
</clipPath>
</defs>
</svg>
