<svg width="166" height="44" viewBox="0 0 166 44" fill="none" xmlns="http://www.w3.org/2000/svg">
<rect width="166" height="44" fill="#F5F5F5"/>
<rect width="1450" height="1080" transform="translate(-38 -743)" fill="white"/>
<g clip-path="url(#clip0_0_1)">
<g filter="url(#filter0_dd_0_1)">
<rect x="-19.3037" y="25" width="313" height="195" rx="20" fill="#DAE9FD"/>
</g>
<rect x="0.696289" width="165" height="44" rx="20" fill="#262060"/>
<path d="M25.6962 27.6C26.7519 27.6863 27.8139 27.5503 28.8137 27.2008C28.8519 26.7303 28.7561 26.2586 28.5373 25.8403C28.3186 25.422 27.9859 25.0741 27.5777 24.837C27.1696 24.5999 26.7026 24.4832 26.2309 24.5004C25.7591 24.5176 25.3019 24.668 24.9121 24.9342M25.6954 27.5992L25.6962 27.625C25.6962 27.8125 25.6862 27.9975 25.6654 28.18C24.1532 29.0476 22.4396 29.5028 20.6962 29.5C18.8879 29.5 17.1904 29.02 15.7271 28.18C15.7056 27.9871 15.6953 27.7932 15.6962 27.5992M25.6962 27.5992C25.693 26.6547 25.421 25.7306 24.9121 24.935M24.9121 24.935C24.4603 24.2265 23.8372 23.6434 23.1003 23.2396C22.3634 22.8358 21.5365 22.6244 20.6962 22.625C19.8561 22.6246 19.0294 22.836 18.2927 23.2398C17.5559 23.6436 16.9329 24.2266 16.4812 24.935M16.4812 24.935C16.0914 24.669 15.6343 24.5188 15.1627 24.5018C14.6911 24.4847 14.2243 24.6015 13.8162 24.8386C13.4082 25.0757 13.0756 25.4234 12.8569 25.8416C12.6382 26.2598 12.5424 26.7313 12.5804 27.2017C13.5795 27.5531 14.6418 27.6886 15.6971 27.5992M16.4804 24.935C15.9718 25.7307 15.7001 26.6548 15.6971 27.5992M23.1962 17.625C23.1962 18.288 22.9328 18.9239 22.464 19.3928C21.9952 19.8616 21.3593 20.125 20.6962 20.125C20.0332 20.125 19.3973 19.8616 18.9285 19.3928C18.4596 18.9239 18.1962 18.288 18.1962 17.625C18.1962 16.962 18.4596 16.3261 18.9285 15.8572C19.3973 15.3884 20.0332 15.125 20.6962 15.125C21.3593 15.125 21.9952 15.3884 22.464 15.8572C22.9328 16.3261 23.1962 16.962 23.1962 17.625V17.625ZM28.1962 20.125C28.1962 20.3712 28.1477 20.615 28.0535 20.8425C27.9593 21.07 27.8212 21.2767 27.6471 21.4508C27.473 21.6249 27.2663 21.763 27.0388 21.8573C26.8113 21.9515 26.5675 22 26.3212 22C26.075 22 25.8312 21.9515 25.6037 21.8573C25.3762 21.763 25.1695 21.6249 24.9954 21.4508C24.8213 21.2767 24.6832 21.07 24.589 20.8425C24.4947 20.615 24.4462 20.3712 24.4462 20.125C24.4462 19.6277 24.6438 19.1508 24.9954 18.7992C25.347 18.4475 25.824 18.25 26.3212 18.25C26.8185 18.25 27.2954 18.4475 27.6471 18.7992C27.9987 19.1508 28.1962 19.6277 28.1962 20.125V20.125ZM16.9462 20.125C16.9462 20.3712 16.8977 20.615 16.8035 20.8425C16.7093 21.07 16.5712 21.2767 16.3971 21.4508C16.223 21.6249 16.0163 21.763 15.7888 21.8573C15.5613 21.9515 15.3175 22 15.0712 22C14.825 22 14.5812 21.9515 14.3537 21.8573C14.1262 21.763 13.9195 21.6249 13.7454 21.4508C13.5713 21.2767 13.4332 21.07 13.339 20.8425C13.2447 20.615 13.1962 20.3712 13.1962 20.125C13.1962 19.6277 13.3938 19.1508 13.7454 18.7992C14.097 18.4475 14.574 18.25 15.0712 18.25C15.5685 18.25 16.0454 18.4475 16.3971 18.7992C16.7487 19.1508 16.9462 19.6277 16.9462 20.125V20.125Z" stroke="white" stroke-width="1.5" stroke-linecap="round" stroke-linejoin="round"/>
<text fill="white" xml:space="preserve" style="white-space: pre" font-family="Inter" font-size="20" letter-spacing="0px"><tspan x="40.6963" y="29.2727">No. of ULNs</tspan></text>
</g>
<defs>
<filter id="filter0_dd_0_1" x="-24.3037" y="24" width="323" height="205" filterUnits="userSpaceOnUse" color-interpolation-filters="sRGB">
<feFlood flood-opacity="0" result="BackgroundImageFix"/>
<feColorMatrix in="SourceAlpha" type="matrix" values="0 0 0 0 0 0 0 0 0 0 0 0 0 0 0 0 0 0 127 0" result="hardAlpha"/>
<feMorphology radius="1" operator="erode" in="SourceAlpha" result="effect1_dropShadow_0_1"/>
<feOffset dy="4"/>
<feGaussianBlur stdDeviation="3"/>
<feColorMatrix type="matrix" values="0 0 0 0 0 0 0 0 0 0 0 0 0 0 0 0 0 0 0.1 0"/>
<feBlend mode="normal" in2="BackgroundImageFix" result="effect1_dropShadow_0_1"/>
<feColorMatrix in="SourceAlpha" type="matrix" values="0 0 0 0 0 0 0 0 0 0 0 0 0 0 0 0 0 0 127 0" result="hardAlpha"/>
<feMorphology radius="2" operator="erode" in="SourceAlpha" result="effect2_dropShadow_0_1"/>
<feOffset dy="2"/>
<feGaussianBlur stdDeviation="2"/>
<feColorMatrix type="matrix" values="0 0 0 0 0 0 0 0 0 0 0 0 0 0 0 0 0 0 0.1 0"/>
<feBlend mode="normal" in2="effect1_dropShadow_0_1" result="effect2_dropShadow_0_1"/>
<feBlend mode="normal" in="SourceGraphic" in2="effect2_dropShadow_0_1" result="shape"/>
</filter>
<clipPath id="clip0_0_1">
<rect width="1431.3" height="220" fill="white" transform="translate(-19.3037)"/>
</clipPath>
</defs>
</svg>
