<svg width="30" height="28" viewBox="0 0 30 28" fill="none" xmlns="http://www.w3.org/2000/svg">
<rect width="30" height="28" fill="#F5F5F5"/>
<rect width="1450" height="1080" transform="translate(-1350 -25)" fill="white"/>
<rect x="-1350" y="-25" width="1447.89" height="80" fill="#E4E8E8"/>
<path d="M14.6353 23.214C16.8588 22.9444 19.0435 22.4069 21.144 21.6127C19.3651 19.5942 18.3822 16.9705 18.3861 14.2513V13.3956V13.3345C18.3861 11.3893 17.6317 9.5237 16.2889 8.14822C14.9461 6.77274 13.1249 6 11.2259 6C9.32688 6 7.50566 6.77274 6.16285 8.14822C4.82005 9.5237 4.06568 11.3893 4.06568 13.3345V14.2513C4.06928 16.9707 3.0859 19.5944 1.30661 21.6127C3.37471 22.395 5.555 22.939 7.81644 23.214M14.6353 23.214C12.3703 23.4892 10.0815 23.4892 7.81644 23.214H14.6353ZM14.6353 23.214C14.8073 23.7639 14.8501 24.3477 14.7602 24.9177C14.6702 25.4878 14.4502 26.028 14.1179 26.4945C13.7856 26.9609 13.3505 27.3404 12.8479 27.602C12.3454 27.8636 11.7896 28 11.2259 28C10.6622 28 10.1064 27.8636 9.60387 27.602C9.10133 27.3404 8.6662 26.9609 8.33391 26.4945C8.00161 26.028 7.78155 25.4878 7.69162 24.9177C7.6017 24.3477 7.64447 23.7639 7.81644 23.214M0.633545 11.5009C0.970039 9.45328 1.86725 7.54567 3.22077 6L0.633545 11.5009ZM19.231 6C20.5845 7.54567 21.4817 9.45328 21.8182 11.5009L19.231 6Z" fill="#262060"/>
<path fill-rule="evenodd" clip-rule="evenodd" d="M24.0724 9.53802C26.8408 9.53802 29.085 7.40286 29.085 4.76901C29.085 2.13516 26.8408 0 24.0724 0C21.304 0 19.0598 2.13516 19.0598 4.76901C19.0598 7.40286 21.304 9.53802 24.0724 9.53802Z" fill="#149544"/>
</svg>
